<svg width="334" height="80" viewBox="0 0 334 80" fill="none" xmlns="http://www.w3.org/2000/svg">
<path d="M227.751 76.0048C227.751 76.8583 227.607 77.5852 227.327 78.1844C227.048 78.7836 226.634 79.2283 226.093 79.537C225.552 79.8457 224.886 79.9999 224.102 79.9999C223.886 79.9999 223.66 79.9818 223.407 79.9364C223.155 79.891 222.93 79.8364 222.723 79.7548L222.75 78.4559C222.903 78.5013 223.084 78.5385 223.3 78.5839C223.507 78.6201 223.714 78.6376 223.912 78.6376C224.408 78.6376 224.832 78.5382 225.174 78.3475C225.516 78.1568 225.777 77.8659 225.948 77.4755C226.12 77.085 226.21 76.5946 226.21 76.0135V60.3143H227.751V76.0048ZM78.7258 60.0507C79.6089 60.0507 80.3926 60.2055 81.0774 60.5233C81.7622 60.8411 82.3393 61.2853 82.8079 61.8573C83.2764 62.4294 83.6281 63.1106 83.8713 63.8915C84.1146 64.6723 84.2317 65.5351 84.2317 66.4794V67.4237H74.3196V67.7235C74.3196 68.5043 74.4371 69.2215 74.6624 69.8934C74.8876 70.5652 75.2117 71.1555 75.635 71.6639C76.0585 72.1724 76.563 72.5729 77.1487 72.8544C77.7344 73.1359 78.3746 73.2811 79.0774 73.2811C79.8973 73.2811 80.6271 73.126 81.2668 72.8173C81.8975 72.5085 82.4742 72.0272 82.9788 71.3553L83.9426 72.1093C83.6453 72.5541 83.2671 72.9721 82.8167 73.3534C82.3661 73.7347 81.8251 74.0346 81.2034 74.2616C80.5817 74.4885 79.8517 74.5975 79.0139 74.5975V74.5878C78.104 74.5877 77.2748 74.4159 76.509 74.08C75.7522 73.744 75.0942 73.2716 74.5266 72.6542C73.968 72.0458 73.5361 71.3098 73.2297 70.4745C72.9234 69.6301 72.7698 68.7128 72.7698 67.705V67.1512C72.7698 66.0708 72.932 65.0991 73.2473 64.2274C73.5626 63.3559 74.0043 62.6117 74.5627 61.9852C75.1214 61.3678 75.7521 60.8857 76.4729 60.5497C77.1847 60.2137 77.9419 60.0507 78.7258 60.0507ZM115.697 60.0507C116.579 60.0507 117.363 60.2056 118.048 60.5233C118.733 60.8411 119.309 61.2855 119.778 61.8573C120.246 62.4293 120.598 63.1106 120.841 63.8915C121.084 64.6723 121.201 65.5351 121.201 66.4794V67.4237H111.29V67.7235C111.29 68.5043 111.407 69.2216 111.632 69.8934C111.857 70.5653 112.182 71.1555 112.606 71.6639C113.029 72.1724 113.534 72.5729 114.119 72.8544C114.705 73.1357 115.345 73.2811 116.047 73.2811C116.867 73.2811 117.597 73.1259 118.237 72.8173C118.867 72.5085 119.445 72.0273 119.949 71.3553L120.913 72.1093C120.616 72.5541 120.238 72.9721 119.787 73.3534C119.337 73.7348 118.796 74.0346 118.174 74.2616C117.552 74.4886 116.823 74.5975 115.985 74.5975V74.5878C115.075 74.5878 114.246 74.4158 113.48 74.08C112.723 73.744 112.065 73.2716 111.497 72.6542C110.939 72.0458 110.506 71.3099 110.199 70.4745C109.893 69.6301 109.74 68.7127 109.74 67.705V67.1512C109.741 66.0708 109.903 65.0991 110.218 64.2274C110.533 63.3559 110.975 62.6117 111.533 61.9852C112.092 61.3678 112.723 60.8857 113.444 60.5497C114.155 60.2138 114.913 60.0507 115.697 60.0507ZM176.544 60.0507C177.427 60.0507 178.211 60.2055 178.896 60.5233C179.58 60.8411 180.158 61.2853 180.626 61.8573C181.095 62.4293 181.445 63.1107 181.689 63.8915C181.932 64.6723 182.049 65.5351 182.049 66.4794V67.4237H172.138V67.7235C172.138 68.5044 172.255 69.2215 172.481 69.8934C172.706 70.5652 173.03 71.1555 173.453 71.6639C173.877 72.1724 174.381 72.5729 174.967 72.8544C175.553 73.1358 176.193 73.2811 176.896 73.2811C177.716 73.2811 178.446 73.126 179.085 72.8173C179.716 72.5085 180.293 72.0272 180.797 71.3553L181.761 72.1093C181.464 72.5542 181.085 72.972 180.635 73.3534C180.184 73.7348 179.643 74.0346 179.022 74.2616C178.4 74.4885 177.67 74.5975 176.832 74.5975V74.5878C175.922 74.5878 175.093 74.4159 174.327 74.08C173.571 73.744 172.913 73.2716 172.345 72.6542C171.786 72.0458 171.354 71.3098 171.048 70.4745C170.742 69.6301 170.588 68.7128 170.588 67.705V67.1512C170.588 66.0708 170.75 65.0991 171.066 64.2274C171.381 63.3559 171.823 62.6117 172.381 61.9852C172.94 61.3678 173.57 60.8857 174.291 60.5497C175.003 60.2137 175.76 60.0507 176.544 60.0507ZM202.791 60.0507C203.674 60.0507 204.458 60.2056 205.143 60.5233C205.828 60.8411 206.405 61.2853 206.873 61.8573C207.342 62.4293 207.693 63.1106 207.937 63.8915C208.18 64.6723 208.297 65.5351 208.297 66.4794V67.4237H198.385V67.7235C198.385 68.5043 198.503 69.2216 198.728 69.8934C198.953 70.5652 199.277 71.1556 199.7 71.6639C200.124 72.1724 200.629 72.5729 201.215 72.8544C201.801 73.1357 202.44 73.2811 203.143 73.2811C203.963 73.2811 204.693 73.126 205.332 72.8173C205.972 72.5085 206.54 72.0273 207.044 71.3553L208.009 72.1093C207.712 72.5542 207.333 72.972 206.882 73.3534C206.432 73.7347 205.891 74.0346 205.27 74.2616C204.639 74.4886 203.918 74.5975 203.08 74.5975V74.5878C202.17 74.5878 201.34 74.4159 200.574 74.08C199.818 73.744 199.161 73.2714 198.593 72.6542C198.034 72.0458 197.602 71.3099 197.295 70.4745C196.989 69.6301 196.835 68.7128 196.835 67.705V67.1512C196.835 66.0708 196.997 65.0991 197.313 64.2274C197.628 63.356 198.07 62.6117 198.628 61.9852C199.187 61.3678 199.818 60.8857 200.539 60.5497C201.251 60.2139 202.008 60.0507 202.791 60.0507ZM64.2551 60.0507C65.192 60.0507 66.0479 60.223 66.8137 60.577C67.5796 60.9221 68.2289 61.4222 68.7786 62.0487C69.328 62.6751 69.742 63.4286 70.0393 64.2909C70.3276 65.1535 70.4817 66.0981 70.4817 67.1151V67.5419C70.4817 68.5588 70.3366 69.5028 70.0393 70.3563C69.751 71.219 69.328 71.9642 68.7874 72.5907C68.2468 73.2171 67.5892 73.7073 66.8235 74.0614C66.0576 74.4155 65.2098 74.5878 64.2727 74.5878C63.3357 74.5877 62.4799 74.4155 61.7141 74.0614C60.9484 73.7164 60.2998 73.2171 59.7502 72.5907C59.2006 71.9642 58.7769 71.219 58.4885 70.3563C58.2003 69.4938 58.0471 68.5587 58.0471 67.5419V67.1151C58.0471 66.0981 58.1912 65.1535 58.4885 64.2909C58.7768 63.4286 59.2001 62.6842 59.7405 62.0487C60.2811 61.4222 60.9394 60.9312 61.7053 60.577C62.4711 60.223 63.3182 60.0507 64.2551 60.0507ZM42.7112 55.4647C43.6662 55.4647 44.513 55.5563 45.2698 55.7469C46.0267 55.9376 46.6669 56.2371 47.1985 56.6366C47.7299 57.0451 48.135 57.5536 48.4143 58.1708C48.6936 58.7882 48.8293 59.5243 48.8293 60.3778C48.8293 61.1586 48.658 61.8578 48.3157 62.4843C47.9733 63.1108 47.4862 63.6192 46.8645 64.0096C46.5623 64.1994 46.2319 64.3534 45.8723 64.4745C46.4875 64.6007 47.0422 64.8337 47.5315 65.1718C48.1621 65.6075 48.6488 66.1614 49.0002 66.8241C49.3516 67.4869 49.5227 68.2227 49.5227 69.0126C49.5227 70.1566 49.2702 71.1191 48.7747 71.9091C48.2701 72.699 47.577 73.2993 46.676 73.7079C45.784 74.1165 44.7384 74.3251 43.5491 74.3251H38.7825V74.3339H37.1965V55.4647H42.7112ZM54.6946 74.3339H53.1633V55.3768H54.6946V74.3339ZM93.1965 60.0507C93.8723 60.0507 94.4855 60.1412 95.0442 60.3319C95.5937 60.5226 96.0709 60.8045 96.4583 61.204C96.8456 61.5944 97.1522 62.1117 97.3684 62.7382C97.3731 62.7518 97.3765 62.7663 97.3811 62.7802C97.613 62.3688 97.8943 61.9879 98.2249 61.6483C98.6933 61.1582 99.2607 60.7767 99.9182 60.4862C100.576 60.2047 101.315 60.0595 102.135 60.0594C102.856 60.0594 103.496 60.1598 104.064 60.3505C104.631 60.5412 105.109 60.8499 105.496 61.2675C105.884 61.685 106.181 62.2207 106.388 62.8651C106.595 63.5098 106.695 64.2911 106.695 65.1991V74.3339H105.154V65.1903C105.154 64.2006 105.009 63.4288 104.721 62.8749C104.433 62.3301 104.036 61.9483 103.531 61.7303C103.027 61.5125 102.433 61.4032 101.757 61.4032C101.09 61.4032 100.504 61.5402 99.9993 61.7762C99.4949 62.0123 99.0711 62.3205 98.7288 62.7108C98.3864 63.0922 98.1346 63.5103 97.9543 63.9462C97.8221 64.2898 97.7337 64.6227 97.6917 64.953C97.6917 64.9715 97.6926 64.9901 97.6926 65.0087V74.3339H96.1614V65.0536C96.1613 64.1185 96.0171 63.3917 95.7288 62.8651C95.4405 62.3386 95.044 61.9661 94.5305 61.7391C94.0169 61.5121 93.4307 61.4032 92.7639 61.4032C91.9712 61.4032 91.3135 61.5669 90.7639 61.8846C90.2235 62.2114 89.7821 62.6293 89.4397 63.1376C89.1091 63.6373 88.8712 64.1629 88.7092 64.7216V74.3251H87.1682V60.3046H88.6467L88.6956 62.5839C88.8613 62.3108 89.0461 62.0537 89.2502 61.8124C89.7187 61.2586 90.2859 60.8313 90.9436 60.5135C91.6014 60.2048 92.3496 60.0507 93.1965 60.0507ZM130.266 60.0507C130.96 60.0507 131.582 60.1413 132.131 60.3319C132.681 60.5226 133.15 60.8224 133.537 61.2401C133.925 61.6578 134.213 62.1851 134.42 62.8387C134.618 63.4833 134.726 64.273 134.726 65.2079V74.3339H133.186V65.1991C133.186 64.2278 133.05 63.4743 132.789 62.9296C132.519 62.3847 132.149 61.9938 131.654 61.7577C131.167 61.5216 130.59 61.4032 129.914 61.4032C129.176 61.4032 128.536 61.567 127.978 61.8846C127.428 62.2114 126.959 62.6293 126.59 63.1376C126.232 63.6399 125.95 64.1684 125.752 64.7303V74.3251H124.22V60.3046H125.689L125.739 62.6796C125.926 62.3706 126.137 62.0817 126.373 61.8124C126.86 61.2585 127.428 60.8314 128.085 60.5135C128.743 60.2048 129.464 60.0507 130.266 60.0507ZM140.232 67.1415L141.673 65.5712L147.007 60.3143H148.953L143.053 66.2108L149.467 74.3251H147.62L141.987 67.2655L140.232 68.9764V74.3339H138.699V55.3768H140.232V67.1415ZM159.882 60.3143H160.1L163.406 70.9647L163.773 72.4384L164.065 71.0741L166.93 60.3046H168.516L164.479 74.3251H164.242L164.244 74.3339H163.163L159.577 63.1923L159.414 62.4178L159.243 63.1923L155.73 74.3251H155.538L155.54 74.3339H154.423L150.387 60.3143H151.963L154.909 71.12L155.14 72.2938L155.442 71.0468H155.45L158.802 60.3046H159.884L159.882 60.3143ZM186.6 67.1522L188.051 65.5712L193.385 60.3143H195.331L189.43 66.2108L195.845 74.3251H193.997L188.364 67.2655L186.6 68.9843V74.3339H185.069V55.3768H186.6V67.1522ZM221.894 74.3339H220.363V60.3143H221.894V74.3339ZM216.749 60.0419C216.947 60.0419 217.145 60.0596 217.334 60.0868C217.523 60.114 217.668 60.1508 217.767 60.1962L217.777 60.205L217.74 61.6307C217.569 61.6035 217.398 61.5854 217.236 61.5673C217.074 61.5491 216.893 61.5399 216.704 61.5399C216.038 61.5399 215.451 61.6668 214.947 61.912C214.442 62.1571 214.028 62.5026 213.686 62.9384C213.343 63.3742 213.082 63.8826 212.902 64.4637C212.886 64.5148 212.871 64.5663 212.857 64.618V74.3251H211.324V60.3046H212.821L212.854 62.4852C212.951 62.2927 213.057 62.1081 213.172 61.9305C213.56 61.3403 214.055 60.8769 214.65 60.5409C215.244 60.205 215.947 60.0419 216.749 60.0419ZM64.2463 61.3944C63.4895 61.3944 62.822 61.5486 62.2454 61.8573C61.6687 62.166 61.1821 62.5931 60.7766 63.1288C60.3802 63.6645 60.0744 64.2731 59.8762 64.954C59.678 65.635 59.5696 66.3615 59.5696 67.1151H59.5784V67.5419C59.5784 68.3137 59.6778 69.0405 59.885 69.7216C60.0922 70.4115 60.39 71.0202 60.7864 71.5468C61.1828 72.0823 61.6696 72.491 62.2551 72.7997C62.8406 73.0991 63.5072 73.2537 64.2727 73.2538C65.0386 73.2538 65.697 73.0993 66.2737 72.7997C66.8501 72.5001 67.3363 72.0822 67.7327 71.5468C68.1291 71.0202 68.427 70.4025 68.6252 69.7216C68.8235 69.0315 68.9319 68.3046 68.9319 67.5419V67.1151C68.9319 66.3524 68.8325 65.635 68.6252 64.954C68.427 64.273 68.1203 63.6645 67.7239 63.1288C67.3274 62.5931 66.8317 62.1751 66.2551 61.8573C65.6696 61.5487 65.0029 61.3945 64.2463 61.3944ZM43.6477 65.2626H38.7825V72.9628H43.5305C44.4585 72.9628 45.2519 72.8088 45.9006 72.4911C46.5584 72.1733 47.0629 71.7278 47.4143 71.1376C47.7657 70.5474 47.9465 69.848 47.9465 69.0399C47.9465 68.3228 47.7928 67.6783 47.4866 67.1063C47.1802 66.5343 46.7023 66.0888 46.0715 65.7528C45.4409 65.417 44.6302 65.2538 43.6575 65.2538H43.6301L43.6477 65.2626ZM78.7258 61.3944C78.0771 61.3944 77.4735 61.5309 76.9329 61.8124C76.3923 62.0848 75.9238 62.4843 75.5364 63.0018C75.1489 63.5194 74.8423 64.1278 74.635 64.827C74.5167 65.2313 74.4321 65.6565 74.3801 66.1073H82.6995V65.9257C82.6814 65.1357 82.5281 64.3997 82.2307 63.7186C81.9334 63.0288 81.4918 62.4747 80.9153 62.0389C80.3296 61.6032 79.5997 61.3944 78.7258 61.3944ZM115.697 61.3944C115.048 61.3944 114.443 61.5309 113.903 61.8124C113.362 62.0848 112.893 62.4844 112.506 63.0018C112.119 63.5194 111.813 64.1279 111.606 64.827C111.487 65.2313 111.403 65.6565 111.351 66.1073H119.67V65.9257C119.652 65.1357 119.499 64.3997 119.201 63.7186C118.904 63.0287 118.463 62.4747 117.886 62.0389C117.3 61.6032 116.57 61.3945 115.697 61.3944ZM176.544 61.3944C175.895 61.3944 175.292 61.5309 174.751 61.8124C174.211 62.0848 173.742 62.4843 173.355 63.0018C172.967 63.5194 172.661 64.1278 172.453 64.827C172.335 65.2313 172.251 65.6565 172.198 66.1073H180.518V65.9257C180.5 65.1357 180.346 64.3997 180.049 63.7186C179.752 63.0287 179.31 62.4747 178.734 62.0389C178.148 61.6032 177.418 61.3944 176.544 61.3944ZM202.791 61.3944C202.143 61.3944 201.539 61.5309 200.998 61.8124C200.458 62.0848 199.989 62.4843 199.602 63.0018C199.214 63.5194 198.908 64.1279 198.7 64.827C198.582 65.2313 198.498 65.6565 198.446 66.1073H206.765V65.9257C206.747 65.1357 206.593 64.3997 206.296 63.7186C205.999 63.0288 205.557 62.4747 204.981 62.0389C204.395 61.6033 203.674 61.3944 202.791 61.3944ZM97.6663 65.245L97.675 65.2352H97.6663C97.6661 65.2384 97.6664 65.2419 97.6663 65.245ZM38.7825 63.9188H40.4045V63.91H43.2815C44.0414 63.8767 44.6975 63.745 45.261 63.5194C45.9095 63.2471 46.4049 62.8476 46.7473 62.3212C47.0897 61.7854 47.2522 61.1311 47.2522 60.3593C47.2522 59.5875 47.0807 58.9064 46.7473 58.3798C46.4139 57.8532 45.9091 57.4719 45.2424 57.2177C44.5757 56.9635 43.738 56.8456 42.72 56.8456H38.7825V63.9188ZM221.137 55.202C221.461 55.202 221.723 55.3018 221.912 55.5106C222.101 55.7103 222.2 55.9645 222.2 56.2548C222.2 56.5451 222.101 56.7814 221.912 56.9901C221.723 57.1899 221.461 57.2997 221.137 57.2997C220.813 57.2997 220.561 57.1989 220.371 56.9901C220.191 56.7904 220.092 56.5453 220.092 56.2548C220.092 55.9643 220.182 55.7103 220.371 55.5106C220.552 55.3109 220.813 55.202 221.137 55.202ZM226.994 55.202C227.319 55.2021 227.58 55.3019 227.769 55.5106C227.958 55.7103 228.057 55.9643 228.057 56.2548C228.057 56.5452 227.958 56.7813 227.769 56.9901C227.58 57.1898 227.319 57.2996 226.994 57.2997C226.67 57.2997 226.408 57.199 226.219 56.9901C226.03 56.7904 225.94 56.5452 225.94 56.2548C225.94 55.9644 226.03 55.7103 226.219 55.5106C226.408 55.3109 226.67 55.202 226.994 55.202ZM139.433 20.287C140.883 20.287 142.055 20.4779 142.938 20.8593C143.821 21.2406 144.541 21.731 145.091 22.3212C145.713 22.984 146.154 23.8376 146.415 24.8817C146.677 25.9259 146.803 27.3423 146.803 29.1219V43.1962C146.803 44.6579 147.073 45.6571 147.605 46.1747C148.145 46.7013 149.047 46.9559 150.326 46.9559V48.0546C149.705 48.0182 148.74 47.973 147.443 47.9276C146.145 47.8822 144.892 47.8456 143.676 47.8456C142.397 47.8456 141.153 47.8731 139.937 47.9276C138.72 47.9821 137.828 48.0273 137.234 48.0546V46.9559C138.342 46.9559 139.117 46.6923 139.568 46.1747C140.018 45.648 140.243 44.658 140.243 43.1962V27.3427C140.243 26.3983 140.153 25.5531 139.982 24.8085C139.81 24.055 139.459 23.4649 138.946 23.0292C138.423 22.5934 137.684 22.3749 136.711 22.3749C135.567 22.3749 134.558 22.6937 133.675 23.3202C132.792 23.9467 132.098 24.8094 131.593 25.9081C131.089 27.0067 130.836 28.2328 130.836 29.5946V43.1962C130.836 44.6579 131.062 45.6571 131.512 46.1747C131.962 46.7013 132.738 46.9559 133.846 46.9559V48.0546C133.26 48.0182 132.377 47.973 131.197 47.9276C130.016 47.8731 128.827 47.8456 127.611 47.8456C126.331 47.8456 125.034 47.8731 123.718 47.9276C122.403 47.9821 121.412 48.0273 120.763 48.0546V46.9559C122.042 46.9559 122.952 46.6921 123.492 46.1747C124.024 45.648 124.295 44.6581 124.295 43.1962V26.7157C124.295 25.1448 124.042 23.9827 123.537 23.2382C123.033 22.4846 122.114 22.1122 120.763 22.1122V21.0135C121.871 21.1225 122.944 21.1678 123.98 21.1678C125.259 21.1678 126.476 21.1042 127.638 20.9862C128.8 20.8682 129.863 20.6776 130.827 20.4325V25.662C131.692 23.6737 132.891 22.2755 134.413 21.4764C135.936 20.6774 137.595 20.2684 139.397 20.2684L139.433 20.287ZM179.889 12.035C178.781 12.0714 177.943 12.1987 177.375 12.4257C176.808 12.6526 176.412 13.0704 176.204 13.6786C175.997 14.287 175.889 15.2407 175.889 16.5302V42.4813C175.889 43.7344 175.988 44.679 176.177 45.3055C176.366 45.9319 176.753 46.3496 177.348 46.5585C177.934 46.7673 178.781 46.9038 179.889 46.9764V48.0204C179.024 47.9478 177.916 47.9116 176.565 47.8934C175.213 47.8753 173.843 47.8661 172.464 47.8661C170.905 47.8661 169.446 47.8662 168.076 47.8934C166.707 47.9116 165.608 47.9568 164.779 48.0204V46.9764C165.923 46.9038 166.779 46.7673 167.347 46.5585C167.914 46.3496 168.301 45.9319 168.49 45.3055C168.68 44.679 168.78 43.7344 168.78 42.4813V16.5302C168.78 15.2407 168.68 14.287 168.49 13.6786C168.301 13.0705 167.923 12.6526 167.347 12.4257C166.779 12.1987 165.923 12.0714 164.779 12.035V10.9911C165.608 11.0274 166.707 11.0641 168.076 11.1005C169.446 11.1368 170.905 11.1542 172.464 11.1542C173.852 11.1542 175.213 11.1368 176.565 11.1005C177.916 11.0642 179.024 11.0274 179.889 10.9911V12.035ZM85.7473 20.7567C86.2879 20.793 86.82 20.8196 87.3606 20.8378C87.892 20.8559 88.4054 20.8651 88.8918 20.8651C89.6217 20.8651 90.3343 20.8467 91.0461 20.8104C91.7578 20.7741 92.3526 20.7197 92.8391 20.6561H92.8655V21.7548C92.2078 21.891 91.5954 22.2642 91.0188 22.8544C90.4512 23.4446 89.9017 24.4979 89.3792 25.996L81.4319 47.87C81.0174 47.8337 80.6022 47.8153 80.1877 47.8153C79.7735 47.8153 79.3412 47.8337 78.8909 47.87L69.5471 24.6884C69.0245 23.3627 68.4925 22.5452 67.9338 22.2274C67.3844 21.9097 66.9159 21.7549 66.5286 21.7548V20.6561C67.4925 20.7287 68.5014 20.7833 69.5374 20.8378C70.5736 20.8923 71.7187 20.9198 72.9622 20.9198C74.0343 20.9198 75.1694 20.8922 76.3586 20.8378C77.5569 20.7833 78.6651 20.7288 79.7102 20.6561V21.7548C78.9446 21.7548 78.269 21.8102 77.6565 21.91C77.0528 22.019 76.6469 22.2818 76.4397 22.7177C76.2325 23.1535 76.314 23.9164 76.7014 24.9969L82.7942 40.9218L87.1799 28.9198C87.7656 27.2853 88.0095 25.9593 87.9104 24.9423C87.8023 23.9344 87.4329 23.1623 86.7932 22.6356C86.1535 22.109 85.2431 21.8186 84.0627 21.746V20.6473C84.6483 20.6837 85.2158 20.7204 85.7473 20.7567ZM106.364 19.701C107.958 19.701 109.238 19.8641 110.409 20.2001C111.59 20.536 112.59 21.1176 113.419 21.953C114.248 22.7519 114.788 23.7505 115.031 24.9305C115.275 26.1201 115.392 27.5643 115.392 29.2714V43.6093C115.392 44.4807 115.5 45.0983 115.707 45.4706C115.914 45.8338 116.248 46.0243 116.69 46.0243C117.032 46.0243 117.366 45.9341 117.672 45.7616C117.987 45.5891 118.33 45.3431 118.708 45.0253L119.276 45.9159C118.51 46.506 117.717 46.9778 116.888 47.3319C116.059 47.6769 115.05 47.8583 113.878 47.8583C112.707 47.8582 111.707 47.686 110.995 47.3319C110.284 46.9869 109.77 46.4782 109.437 45.8153C109.103 45.1525 108.923 44.3717 108.887 43.4637C108.058 44.8621 107.031 45.9432 105.823 46.7059C104.607 47.4777 103.156 47.8583 101.462 47.8583L101.48 47.868C99.9932 47.868 98.7319 47.5768 97.6868 47.0048C96.6506 46.4327 95.8664 45.6429 95.3528 44.6532C94.8303 43.6635 94.5784 42.5557 94.5784 41.33C94.5784 39.8317 94.9207 38.5969 95.6145 37.6434C96.3083 36.681 97.2001 35.9179 98.2903 35.3368C99.3805 34.7647 100.534 34.2744 101.741 33.8749C102.949 33.4754 104.093 33.0938 105.165 32.7216C106.238 32.3583 107.121 31.9316 107.815 31.4413C108.508 30.951 108.851 30.3065 108.851 29.5077V25.6844C108.851 24.5677 108.688 23.6508 108.355 22.9335C108.021 22.2161 107.544 21.6798 106.905 21.3075C106.265 20.9443 105.463 20.7538 104.49 20.7538C103.76 20.7538 103.002 20.8633 102.2 21.0721C101.408 21.281 100.75 21.6804 100.228 22.2704C101.129 22.5156 101.832 22.9699 102.327 23.6327C102.832 24.2955 103.084 25.0947 103.084 26.0389C103.084 27.1194 102.733 27.9638 102.021 28.5721C101.309 29.1805 100.417 29.4891 99.345 29.4891C98.2006 29.4891 97.335 29.126 96.7493 28.3905C96.1637 27.655 95.8665 26.8015 95.8665 25.83C95.8665 24.8585 96.1095 24.041 96.5959 23.3964C97.0824 22.7518 97.7585 22.171 98.6233 21.6444C99.4883 21.0542 100.597 20.5815 101.948 20.2274C103.3 19.8824 104.769 19.7011 106.364 19.701ZM214.526 19.3065C217.571 19.3065 219.959 20.2328 221.689 22.076C223.419 23.9284 224.284 26.8701 224.284 30.9198H209.182C209.131 31.301 209.099 31.7054 209.092 32.1278C209.074 32.6544 209.066 33.1725 209.066 33.6991C209.066 36.105 209.408 38.0932 210.102 39.6639C210.796 41.2348 211.697 42.3887 212.805 43.1151C213.913 43.8505 215.057 44.2137 216.229 44.2137C217.022 44.2137 217.841 44.0956 218.67 43.8505C219.499 43.6053 220.311 43.151 221.113 42.4882C221.905 41.8253 222.635 40.8806 223.293 39.6639L224.275 40.0819C223.896 41.3076 223.266 42.5153 222.383 43.7137C221.5 44.9214 220.364 45.9029 218.986 46.6747C217.598 47.4464 215.976 47.828 214.102 47.828C211.75 47.8279 209.669 47.3008 207.876 46.2567C206.074 45.2125 204.677 43.6506 203.668 41.5712C202.668 39.4918 202.163 36.9583 202.163 33.9618C202.163 30.7838 202.686 28.1232 203.749 25.953C204.803 23.7921 206.263 22.1398 208.137 21.0048C210.002 19.8697 212.138 19.3065 214.526 19.3065ZM261.407 19.3065C262.858 19.3065 264.111 19.5149 265.147 19.9325C266.183 20.3501 266.949 20.7133 267.436 21.0311C268.616 21.9028 269.318 21.3494 269.562 19.3612H270.706C270.634 20.3689 270.58 21.5673 270.553 22.9471C270.517 24.3273 270.499 26.1622 270.499 28.4686H269.355C269.184 27.1792 268.85 25.9259 268.372 24.7001C267.886 23.4834 267.183 22.4567 266.246 21.6395C265.309 20.8224 264.083 20.4139 262.561 20.4139C261.489 20.414 260.597 20.7319 259.885 21.3583C259.173 21.9848 258.822 22.875 258.822 24.0282C258.822 25.0724 259.137 25.9895 259.759 26.7704C260.381 27.5511 261.182 28.2867 262.173 28.9677C263.164 29.6486 264.192 30.3933 265.264 31.1923C266.507 32.0276 267.616 32.872 268.589 33.7255C269.562 34.579 270.337 35.5236 270.923 36.5497C271.509 37.5758 271.806 38.7929 271.806 40.1913C271.806 41.7984 271.365 43.1699 270.482 44.2958C269.599 45.4308 268.436 46.3017 267.003 46.91C265.571 47.5184 263.985 47.8279 262.255 47.828C261.318 47.828 260.471 47.7368 259.714 47.5643C258.948 47.3919 258.281 47.165 257.687 46.8837C257.236 46.6385 256.83 46.4109 256.47 46.202C256.11 45.9932 255.731 45.8209 255.353 45.6757C255.01 45.5031 254.704 45.5668 254.443 45.8846C254.181 46.2024 253.983 46.7197 253.848 47.455H252.703C252.775 46.3381 252.821 44.9758 252.857 43.3778C252.893 41.7707 252.91 39.6461 252.91 36.995H254.055C254.298 38.9109 254.668 40.6001 255.172 42.0438C255.677 43.4874 256.407 44.6219 257.38 45.4481C258.353 46.2653 259.597 46.6747 261.119 46.6747C261.777 46.6747 262.408 46.5382 263.012 46.2567C263.615 45.9752 264.12 45.5391 264.516 44.9491C264.912 44.3589 265.111 43.5508 265.111 42.5428C265.111 41.0083 264.588 39.7366 263.552 38.7196C262.516 37.7118 261.218 36.6315 259.659 35.4784C258.479 34.6067 257.38 33.7532 256.362 32.9178C255.343 32.0825 254.505 31.1378 253.865 30.0936C253.226 29.0494 252.902 27.8053 252.902 26.3798C252.902 24.8089 253.298 23.5103 254.1 22.4843C254.893 21.4583 255.947 20.6684 257.244 20.1327C258.542 19.5879 259.939 19.3241 261.426 19.3241L261.407 19.3065ZM192.973 20.0868H199.623V21.1317H192.973V41.953C192.973 43.2057 193.198 44.0953 193.649 44.6219C194.099 45.1485 194.739 45.4031 195.568 45.4032C196.396 45.4032 197.091 45.0944 197.748 44.4862C198.406 43.8778 198.992 42.8603 199.515 41.4257L200.451 41.8436C199.929 43.5506 199.127 44.9762 198.037 46.1112C196.947 47.2462 195.415 47.8094 193.442 47.8094C192.261 47.8094 191.27 47.6638 190.459 47.3641C189.648 47.0645 188.945 46.6377 188.36 46.0839C187.594 45.2849 187.09 44.3226 186.828 43.2059C186.567 42.0891 186.441 40.6089 186.441 38.7567V21.1219H181.872V20.078H186.441V12.8046C187.684 12.7682 188.846 12.6501 189.918 12.4413C190.987 12.2331 192.002 11.8979 192.973 11.455V20.0868ZM288.404 19.3065C290.791 19.3065 292.909 19.7877 294.765 20.7411C296.612 21.7036 298.09 23.2289 299.18 25.3173C300.27 27.4148 300.811 30.1667 300.811 33.5809C300.811 36.995 300.27 39.7552 299.18 41.8436C298.09 43.932 296.621 45.4572 294.765 46.3925C292.909 47.3368 290.791 47.8094 288.404 47.8094C286.016 47.8094 283.889 47.3368 282.015 46.3925C280.141 45.4481 278.672 43.932 277.6 41.8436C276.528 39.7462 275.987 36.995 275.987 33.5809C275.987 30.1667 276.519 27.4057 277.6 25.3173C278.672 23.2289 280.141 21.7036 282.015 20.7411C283.88 19.7786 286.016 19.3065 288.404 19.3065ZM244.901 19.994C245.973 19.9941 246.865 20.2207 247.576 20.6747C248.288 21.1287 248.811 21.7011 249.162 22.4003C249.505 23.0994 249.685 23.8349 249.685 24.5975C249.685 25.7507 249.343 26.7046 248.676 27.4764C248 28.2482 247.108 28.6288 245.999 28.6288C244.963 28.6287 244.116 28.3477 243.458 27.7938C242.801 27.2399 242.477 26.4678 242.477 25.4872C242.477 24.6156 242.693 23.8801 243.125 23.2899C243.558 22.6998 244.053 22.228 244.603 21.8739C244.224 21.6651 243.791 21.5923 243.305 21.6649C242.476 21.7376 241.711 22.028 241.017 22.5546C240.323 23.0812 239.737 23.7255 239.25 24.4882C238.764 25.2599 238.394 26.0774 238.133 26.9491C237.872 27.8208 237.746 28.6566 237.746 29.4647V42.3856C237.746 44.0927 238.178 45.2374 239.043 45.8094C239.908 46.3815 241.17 46.6718 242.837 46.6718V47.7704C242.044 47.7341 240.891 47.6888 239.386 47.6434C237.881 47.589 236.313 47.5614 234.692 47.5614C233.34 47.5614 231.997 47.589 230.663 47.6434C229.33 47.6979 228.339 47.7431 227.681 47.7704V46.6718C228.96 46.6718 229.871 46.4081 230.411 45.8905C230.952 45.3638 231.213 44.3744 231.213 42.913V26.4315C231.213 24.8607 230.961 23.6985 230.456 22.954C229.952 22.2003 229.032 21.828 227.681 21.828V20.7294C228.789 20.8383 229.862 20.8837 230.898 20.8837C232.177 20.8837 233.394 20.8201 234.556 20.702C235.718 20.584 236.782 20.3935 237.746 20.1483V25.5878C238.161 24.6071 238.71 23.7076 239.386 22.8632C240.062 22.0279 240.872 21.3376 241.827 20.7928C242.783 20.248 243.81 19.9843 244.918 19.9843L244.901 19.994ZM322.877 20.0028C324.328 20.0028 325.499 20.1938 326.382 20.5751C327.265 20.9564 327.986 21.4468 328.535 22.037C329.157 22.6998 329.599 23.5533 329.861 24.5975C330.122 25.6417 330.248 27.0582 330.248 28.8378V42.913C330.248 44.3746 330.519 45.373 331.05 45.8905C331.582 46.4171 332.491 46.6717 333.771 46.6718V47.7704C333.149 47.7341 332.185 47.6888 330.888 47.6434C329.59 47.589 328.338 47.5614 327.121 47.5614C325.842 47.5614 324.598 47.589 323.382 47.6434C322.166 47.6979 321.274 47.7431 320.679 47.7704V46.6718C321.787 46.6717 322.561 46.408 323.012 45.8905C323.462 45.3639 323.688 44.3746 323.688 42.913V27.0585C323.688 26.1143 323.598 25.2698 323.427 24.5253C323.256 23.7716 322.904 23.1808 322.391 22.745C321.868 22.3092 321.129 22.0917 320.156 22.0917C319.012 22.0917 318.002 22.4095 317.119 23.036C316.236 23.6625 315.543 24.5253 315.047 25.6239C314.543 26.7226 314.29 27.9485 314.29 29.3104V42.913C314.29 44.3745 314.516 45.3729 314.966 45.8905C315.417 46.4172 316.192 46.6718 317.3 46.6718V47.7704C316.714 47.7341 315.831 47.6888 314.651 47.6434C313.47 47.589 312.281 47.5614 311.065 47.5614C309.785 47.5614 308.488 47.589 307.172 47.6434C305.857 47.6979 304.874 47.7431 304.216 47.7704V46.6718C305.496 46.6718 306.406 46.4081 306.947 45.8905C307.487 45.3639 307.748 44.3746 307.748 42.913V26.4315C307.748 24.8607 307.496 23.6985 306.991 22.954C306.487 22.2004 305.568 21.828 304.216 21.828V20.7294C305.324 20.8383 306.397 20.8837 307.433 20.8837C308.712 20.8837 309.929 20.82 311.091 20.702C312.253 20.584 313.317 20.3935 314.281 20.1483V25.3788C315.147 23.3902 316.345 21.9913 317.867 21.1923C319.39 20.3933 321.048 19.9843 322.85 19.9843L322.877 20.0028ZM288.404 20.3505C286.773 20.3505 285.448 21.3856 284.43 23.4647C283.412 25.5441 282.898 28.9134 282.898 33.5897C282.898 38.266 283.412 41.6352 284.43 43.6874C285.448 45.7483 286.773 46.7743 288.404 46.7743C290.034 46.7742 291.314 45.7483 292.35 43.6874C293.386 41.6262 293.908 38.266 293.908 33.5897C293.908 28.9134 293.386 25.5441 292.35 23.4647C291.314 21.3856 289.998 20.3505 288.404 20.3505ZM108.851 31.6415C108.509 32.168 108.013 32.6308 107.373 33.0575C106.734 33.4752 106.048 33.8937 105.319 34.3114C104.589 34.7291 103.904 35.2103 103.264 35.746C102.624 36.2907 102.084 36.9444 101.652 37.7343C101.219 38.5152 101.002 39.5234 101.002 40.7401C101.002 42.102 101.327 43.1371 101.985 43.8544C102.642 44.5716 103.507 44.9256 104.579 44.9257L104.598 44.9344C105.427 44.9344 106.202 44.7078 106.905 44.2538C107.616 43.7998 108.265 43.1188 108.851 42.2108V31.6415ZM214.255 20.4139C212.94 20.414 211.795 21.1956 210.831 22.7391C209.897 24.2299 209.304 26.6243 209.043 29.9305H218.256C218.328 28.2234 218.22 26.6429 217.941 25.1991C217.661 23.7555 217.22 22.5932 216.616 21.7216C216.013 20.8498 215.219 20.4139 214.255 20.4139ZM192.973 11.455V11.452H192.982C192.979 11.4533 192.976 11.4537 192.973 11.455Z" fill="#2F2E2E"/>
<path d="M19.3589 0.0582016C22.169 -0.250713 25.0885 0.669905 27.2431 2.82433C29.3935 4.97468 30.3745 7.94759 30.0712 10.7529H48.9875V21.1665H48.0408C48.0408 15.9381 43.8023 11.6996 38.5739 11.6996H36.6805V41.0471C36.6807 44.184 39.2237 46.7273 42.3606 46.7273H44.254V47.674H36.6805C33.0206 47.674 30.0537 44.707 30.0536 41.0471V11.6996H28.1602C22.9318 11.6996 18.6933 15.9381 18.6933 21.1665V26.3734C18.6933 31.8328 23.1159 35.4467 28.1732 36.8018C29.2716 37.0961 29.8844 37.1298 30.0536 37.1096C27.0528 38.842 22.4888 39.1715 18.6979 35.8579C18.8079 41.1944 23.174 44.7293 28.1602 46.0653C29.2571 46.3592 29.8689 46.3924 30.0379 46.3723C27.0441 48.1006 22.4925 48.4305 18.709 45.1316V45.6604C18.9912 50.8096 23.2793 54.2244 28.1602 55.5323C29.257 55.8262 29.8689 55.8593 30.0379 55.8392C27.0441 57.5676 22.4925 57.8975 18.709 54.5985V55.1274C18.9911 60.2765 23.2793 63.6914 28.1602 64.9992C29.2571 65.2931 29.8689 65.3263 30.0379 65.3062C27.0477 67.0324 22.3308 67.3636 18.5491 64.0775C18.5491 72.6113 15.1047 79.8616 4.81021 79.8616H4.73347C1.70415 79.8616 0.31562 79.2305 0 78.9149H1.89339C7.12181 78.9149 11.3603 74.6764 11.3603 69.448V64.0525C7.57377 67.3657 3.01356 67.0368 0.0157166 65.3062C0.184733 65.3262 0.796585 65.2931 1.89339 64.9992C6.94355 63.646 11.3601 60.0373 11.3603 54.5856C7.57377 57.8988 3.01356 57.5699 0.0157166 55.8392C0.184733 55.8593 0.796585 55.8262 1.89339 55.5323C6.94355 54.1791 11.3601 50.5703 11.3603 45.1186C7.57377 48.4318 3.01356 48.1029 0.0157166 46.3723C0.184734 46.3924 0.796586 46.3592 1.89339 46.0653C6.83597 44.741 11.1684 41.256 11.3511 35.9975V35.5925L11.3465 35.881C7.60155 39.1579 3.09148 38.8324 0.126657 37.1207C0.293736 37.1406 0.899076 37.1082 1.98399 36.8175C6.88613 35.5039 10.7311 32.258 11.4472 27.0482C12.319 18.1269 14.7476 10.7529 25.2434 10.7529H27.8884C25.7839 10.4959 23.7263 9.54363 22.1251 7.94239C19.9707 5.78785 19.05 2.86824 19.3589 0.0582016ZM52.8803 40.1004C54.9715 40.1007 56.6671 41.796 56.6671 43.8872C56.6671 45.9784 54.9715 47.6737 52.8803 47.674C50.789 47.674 49.0936 45.9785 49.0936 43.8872C49.0936 41.7958 50.7889 40.1004 52.8803 40.1004Z" fill="#7AB660"/>
</svg>
