<svg width="605" height="145" viewBox="0 0 605 145" fill="none" xmlns="http://www.w3.org/2000/svg">
<path d="M412.8 137.76C412.8 139.307 412.538 140.624 412.032 141.71C411.526 142.796 410.775 143.603 409.795 144.162C408.815 144.722 407.606 145.001 406.186 145.001C405.794 145.001 405.385 144.968 404.928 144.886C404.471 144.803 404.062 144.705 403.687 144.557L403.736 142.203C404.014 142.285 404.341 142.351 404.732 142.434C405.108 142.499 405.484 142.532 405.843 142.532C406.741 142.532 407.508 142.351 408.129 142.006C408.749 141.66 409.223 141.133 409.533 140.426C409.843 139.718 410.007 138.829 410.007 137.776V109.32H412.8V137.76ZM35.0879 0.105469C40.1811 -0.454432 45.4728 1.21438 49.3779 5.11914C53.2753 9.01658 55.0535 14.4047 54.5039 19.4893H88.79V38.3643H87.0742C87.0741 28.8878 79.3916 21.2061 69.915 21.2061H66.4834V74.3984C66.4839 80.084 71.0937 84.6934 76.7793 84.6934H80.2109V86.4092H66.4834C59.85 86.4091 54.4729 81.0318 54.4727 74.3984V21.2061H51.041C41.5645 21.2061 33.882 28.8878 33.8818 38.3643V47.8018C33.8818 57.697 41.8982 64.247 51.0645 66.7031C53.0002 67.2611 54.1659 67.2982 54.4727 67.2617C49.0337 70.4017 40.7607 70.9981 33.8896 64.9922C34.089 74.6647 42.0035 81.0725 51.041 83.4941C53.0287 84.0267 54.138 84.0862 54.4443 84.0498C49.0181 87.1824 40.7678 87.7809 33.9102 81.8018V82.7598C34.4216 92.0927 42.1943 98.2819 51.041 100.652C53.0288 101.185 54.138 101.245 54.4443 101.209C49.0181 104.342 40.7678 104.939 33.9102 98.96V99.9189C34.4217 109.252 42.1944 115.441 51.041 117.812C53.0289 118.344 54.1381 118.405 54.4443 118.368C49.0246 121.497 40.4745 122.097 33.6201 116.141C33.6201 131.608 27.3774 144.75 8.71875 144.75H8.5791C3.08923 144.75 0.57239 143.606 0 143.034H3.43164C12.9082 143.034 20.5907 135.352 20.5908 125.875V116.096C13.7276 122.101 5.46193 121.505 0.0283203 118.368C0.334658 118.405 1.44375 118.344 3.43164 117.812C12.5851 115.359 20.5904 108.818 20.5908 98.9365C13.7276 104.942 5.46193 104.346 0.0283203 101.209C0.334661 101.245 1.44371 101.185 3.43164 100.652C12.5849 98.1997 20.5902 91.6593 20.5908 81.7783C13.7277 87.7834 5.46188 87.1866 0.0283203 84.0498C0.334653 84.0862 1.44382 84.0267 3.43164 83.4941C12.39 81.0938 20.2429 74.777 20.5742 65.2461V64.5117L20.5654 65.0342C13.7777 70.9735 5.60326 70.3837 0.229492 67.2812C0.532304 67.3173 1.62953 67.2592 3.5957 66.7324C12.4808 64.3516 19.45 58.468 20.748 49.0254C22.328 32.8554 26.7302 19.4893 45.7539 19.4893H50.5479C46.7334 19.0235 43.0038 17.2977 40.1016 14.3955C36.1969 10.4904 34.5281 5.1986 35.0879 0.105469ZM142.691 108.843C144.292 108.843 145.713 109.122 146.954 109.698C148.195 110.274 149.241 111.081 150.09 112.118C150.939 113.155 151.576 114.39 152.017 115.805C152.457 117.22 152.67 118.784 152.67 120.495V122.207H134.705V122.75C134.705 124.165 134.917 125.466 135.325 126.684C135.733 127.901 136.322 128.971 137.09 129.893C137.857 130.814 138.772 131.539 139.833 132.049C140.895 132.559 142.054 132.822 143.328 132.822C144.814 132.822 146.137 132.542 147.297 131.982C148.44 131.423 149.485 130.551 150.399 129.333L152.147 130.699C151.609 131.506 150.922 132.263 150.105 132.954C149.289 133.645 148.309 134.188 147.183 134.6C146.056 135.011 144.733 135.209 143.214 135.209V135.192C141.565 135.192 140.062 134.879 138.674 134.271C137.302 133.662 136.11 132.805 135.081 131.687C134.069 130.584 133.284 129.25 132.729 127.736C132.173 126.206 131.896 124.543 131.896 122.717V121.713C131.896 119.755 132.19 117.993 132.762 116.413C133.333 114.834 134.133 113.484 135.146 112.349C136.158 111.23 137.302 110.357 138.608 109.748C139.899 109.139 141.271 108.843 142.691 108.843ZM209.7 108.843C211.301 108.843 212.722 109.122 213.963 109.698C215.204 110.274 216.249 111.081 217.099 112.118C217.948 113.155 218.585 114.39 219.025 115.805C219.466 117.22 219.679 118.784 219.679 120.495V122.207H201.714V122.75C201.714 124.165 201.926 125.466 202.334 126.684C202.742 127.901 203.331 128.971 204.099 129.893C204.866 130.814 205.78 131.539 206.842 132.049C207.903 132.559 209.063 132.822 210.337 132.822C211.823 132.822 213.146 132.542 214.306 131.982C215.449 131.423 216.494 130.551 217.408 129.333L219.156 130.699C218.617 131.506 217.931 132.263 217.114 132.954C216.298 133.645 215.318 134.188 214.191 134.6C213.065 135.011 211.741 135.209 210.223 135.209V135.192C208.573 135.192 207.071 134.879 205.683 134.271C204.311 133.662 203.119 132.805 202.09 131.687C201.077 130.584 200.293 129.25 199.737 127.736C199.182 126.206 198.905 124.543 198.905 122.717V121.713C198.905 119.755 199.199 117.993 199.771 116.413C200.342 114.833 201.143 113.484 202.155 112.349C203.168 111.23 204.311 110.357 205.617 109.748C206.907 109.139 208.279 108.843 209.7 108.843ZM319.987 108.843C321.588 108.843 323.009 109.122 324.25 109.698C325.491 110.274 326.537 111.081 327.386 112.118C328.235 113.155 328.872 114.39 329.312 115.805C329.753 117.22 329.966 118.784 329.966 120.495V122.207H312.001V122.75C312.001 124.165 312.214 125.466 312.622 126.684C313.03 127.901 313.618 128.971 314.386 129.893C315.153 130.814 316.068 131.539 317.129 132.049C318.19 132.559 319.35 132.822 320.624 132.822C322.11 132.822 323.433 132.542 324.593 131.982C325.736 131.423 326.782 130.551 327.696 129.333L329.443 130.699C328.904 131.505 328.219 132.263 327.402 132.954C326.586 133.645 325.605 134.188 324.479 134.6C323.352 135.011 322.029 135.209 320.51 135.209V135.192C318.86 135.192 317.358 134.879 315.97 134.271C314.598 133.662 313.406 132.806 312.377 131.687C311.364 130.584 310.581 129.25 310.025 127.736C309.47 126.206 309.192 124.543 309.192 122.717V121.713C309.192 119.755 309.486 117.993 310.058 116.413C310.629 114.833 311.43 113.484 312.442 112.349C313.455 111.23 314.598 110.357 315.904 109.748C317.194 109.139 318.566 108.843 319.987 108.843ZM367.561 108.843C369.161 108.843 370.582 109.122 371.823 109.698C373.064 110.274 374.11 111.081 374.959 112.118C375.808 113.155 376.446 114.389 376.887 115.805C377.328 117.22 377.54 118.784 377.54 120.495V122.207H359.575V122.75C359.575 124.165 359.787 125.466 360.195 126.684C360.604 127.901 361.192 128.971 361.959 129.893C362.727 130.814 363.642 131.539 364.703 132.049C365.765 132.559 366.925 132.822 368.198 132.822C369.684 132.822 371.007 132.542 372.166 131.982C373.325 131.423 374.355 130.551 375.27 129.333L377.017 130.699C376.478 131.505 375.792 132.263 374.976 132.954C374.159 133.645 373.178 134.188 372.052 134.6C370.909 135.011 369.602 135.209 368.084 135.209V135.192C366.435 135.192 364.931 134.879 363.543 134.271C362.171 133.662 360.979 132.805 359.95 131.687C358.938 130.584 358.154 129.25 357.599 127.736C357.043 126.206 356.766 124.543 356.766 122.717V121.713C356.766 119.755 357.06 117.993 357.632 116.413C358.203 114.834 359.003 113.484 360.016 112.349C361.028 111.23 362.172 110.357 363.479 109.748C364.768 109.139 366.14 108.843 367.561 108.843ZM116.463 108.843C118.161 108.843 119.713 109.155 121.101 109.797C122.489 110.422 123.665 111.328 124.661 112.464C125.657 113.599 126.408 114.965 126.947 116.528C127.47 118.092 127.748 119.804 127.748 121.647V122.421C127.748 124.264 127.486 125.976 126.947 127.522C126.425 129.086 125.657 130.436 124.678 131.571C123.698 132.707 122.505 133.595 121.117 134.237C119.729 134.879 118.194 135.192 116.495 135.192C114.797 135.192 113.245 134.879 111.857 134.237C110.469 133.612 109.293 132.707 108.297 131.571C107.301 130.436 106.533 129.086 106.011 127.522C105.488 125.959 105.21 124.264 105.21 122.421V121.647C105.21 119.804 105.472 118.092 106.011 116.528C106.533 114.965 107.301 113.616 108.28 112.464C109.26 111.328 110.453 110.439 111.841 109.797C113.229 109.155 114.764 108.843 116.463 108.843ZM77.4141 100.531C79.1451 100.531 80.68 100.696 82.0518 101.042C83.4235 101.388 84.5834 101.93 85.5469 102.654C86.5103 103.395 87.2457 104.317 87.752 105.436C88.2581 106.555 88.5029 107.889 88.5029 109.436C88.5028 110.851 88.1927 112.119 87.5723 113.254C86.9517 114.389 86.0691 115.311 84.9424 116.019C84.3966 116.361 83.8005 116.641 83.1514 116.86C84.2637 117.089 85.2664 117.513 86.1514 118.125C87.2944 118.915 88.1766 119.919 88.8135 121.12C89.4503 122.321 89.7607 123.655 89.7607 125.087C89.7607 127.16 89.3034 128.905 88.4053 130.337C87.4907 131.769 86.2327 132.855 84.5996 133.596C82.9828 134.336 81.0883 134.715 78.9326 134.715H70.293V134.731H67.4189V100.531H77.4141ZM99.1348 134.731H96.3584V100.371H99.1348V134.731ZM168.92 108.843C170.145 108.843 171.255 109.007 172.268 109.353C173.264 109.698 174.13 110.208 174.832 110.933C175.534 111.64 176.09 112.579 176.481 113.714C176.49 113.738 176.497 113.764 176.505 113.789C176.925 113.044 177.433 112.354 178.032 111.739C178.881 110.851 179.911 110.159 181.103 109.633C182.295 109.123 183.634 108.859 185.12 108.859C186.427 108.859 187.586 109.04 188.615 109.386C189.644 109.731 190.51 110.291 191.212 111.048C191.914 111.805 192.454 112.776 192.829 113.944C193.205 115.113 193.385 116.529 193.385 118.175V134.731H190.592V118.158C190.592 116.364 190.33 114.965 189.808 113.961C189.285 112.974 188.567 112.283 187.652 111.888C186.738 111.493 185.659 111.295 184.435 111.295C183.226 111.295 182.165 111.542 181.25 111.97C180.336 112.398 179.568 112.957 178.947 113.665C178.327 114.356 177.87 115.113 177.543 115.903C177.305 116.522 177.144 117.122 177.067 117.717C177.068 117.754 177.069 117.792 177.069 117.829V134.731H174.293V117.911C174.293 116.216 174.031 114.899 173.509 113.944C172.986 112.99 172.267 112.316 171.337 111.904C170.406 111.493 169.344 111.295 168.136 111.295C166.699 111.295 165.506 111.591 164.51 112.167C163.53 112.759 162.73 113.517 162.109 114.438C161.51 115.344 161.08 116.296 160.786 117.309V134.715H157.994V109.304H160.672L160.761 113.436C161.061 112.94 161.396 112.473 161.767 112.035C162.616 111.031 163.645 110.258 164.837 109.682C166.029 109.122 167.385 108.843 168.92 108.843ZM236.108 108.843C237.366 108.843 238.492 109.007 239.488 109.353C240.484 109.698 241.334 110.242 242.036 110.999C242.738 111.756 243.261 112.711 243.637 113.896C243.996 115.064 244.192 116.496 244.192 118.19V134.731H241.399V118.175C241.399 116.414 241.154 115.047 240.681 114.06C240.191 113.072 239.521 112.364 238.623 111.937C237.741 111.509 236.695 111.295 235.471 111.295C234.132 111.295 232.972 111.591 231.96 112.167C230.964 112.759 230.114 113.517 229.444 114.438C228.794 115.349 228.284 116.308 227.926 117.327V134.715H225.149V109.304H227.812L227.901 113.607C228.241 113.047 228.624 112.523 229.053 112.035C229.935 111.031 230.964 110.258 232.156 109.682C233.348 109.122 234.655 108.843 236.108 108.843ZM254.171 121.695L256.784 118.85L266.452 109.32H269.979L259.284 120.008L270.91 134.715H267.562L257.351 121.92L254.171 125.021V134.731H251.395V100.371H254.171V121.695ZM289.786 109.32H290.183L296.176 128.625L296.84 131.296L297.368 128.823L302.562 109.304H305.436L298.119 134.715H297.69L297.694 134.731H295.735L289.235 114.537L288.94 113.135L288.631 114.537L282.262 134.715H281.915L281.918 134.731H279.894L272.576 109.32H275.435L280.775 128.905L281.191 131.031L281.738 128.773H281.755L287.83 109.304H289.79L289.786 109.32ZM338.214 121.712L340.843 118.85L350.512 109.32H354.039L343.344 120.007L354.97 134.715H351.622L341.41 121.919L338.214 125.036V134.731H335.438V100.371H338.214V121.712ZM402.185 134.731H399.408V109.32H402.185V134.731ZM392.858 108.826C393.218 108.826 393.578 108.859 393.921 108.908C394.264 108.958 394.525 109.024 394.704 109.106L394.721 109.122L394.655 111.706C394.345 111.657 394.035 111.624 393.741 111.591C393.447 111.558 393.12 111.542 392.777 111.542C391.569 111.542 390.507 111.772 389.593 112.217C388.678 112.661 387.926 113.286 387.306 114.076C386.685 114.866 386.212 115.788 385.886 116.841C385.857 116.934 385.83 117.028 385.804 117.122V134.715H383.027V109.304H385.738L385.8 113.257C385.976 112.908 386.167 112.571 386.375 112.249C387.077 111.179 387.976 110.34 389.054 109.731C390.131 109.123 391.405 108.826 392.858 108.826ZM116.446 111.278C115.074 111.278 113.866 111.559 112.82 112.118C111.775 112.678 110.894 113.451 110.159 114.422C109.441 115.393 108.885 116.496 108.525 117.73C108.166 118.965 107.971 120.282 107.971 121.647H107.986V122.421C107.986 123.819 108.167 125.136 108.542 126.37C108.918 127.621 109.456 128.724 110.175 129.679C110.893 130.65 111.775 131.391 112.837 131.95C113.898 132.493 115.107 132.772 116.495 132.772C117.883 132.772 119.076 132.493 120.121 131.95C121.166 131.407 122.048 130.65 122.767 129.679C123.485 128.724 124.024 127.604 124.384 126.37C124.743 125.12 124.938 123.803 124.938 122.421V121.647C124.938 120.265 124.759 118.965 124.384 117.73C124.025 116.496 123.468 115.393 122.75 114.422C122.031 113.451 121.133 112.694 120.088 112.118C119.026 111.559 117.818 111.278 116.446 111.278ZM79.1123 118.29H70.293V132.246H78.9004C80.5823 132.246 82.0196 131.967 83.1953 131.391C84.3872 130.815 85.3016 130.008 85.9385 128.938C86.5753 127.869 86.9023 126.6 86.9023 125.136C86.9023 123.836 86.6244 122.667 86.0693 121.631C85.5142 120.594 84.6488 119.788 83.5059 119.179C82.3627 118.57 80.8926 118.273 79.1289 118.273H79.0801L79.1123 118.29ZM142.691 111.278C141.516 111.278 140.421 111.525 139.441 112.035C138.462 112.529 137.612 113.253 136.91 114.191C136.208 115.129 135.652 116.233 135.276 117.5C135.062 118.233 134.909 119.003 134.814 119.82H149.894V119.491C149.861 118.06 149.583 116.726 149.044 115.492C148.505 114.242 147.705 113.237 146.66 112.447C145.599 111.657 144.275 111.278 142.691 111.278ZM209.7 111.278C208.524 111.278 207.43 111.525 206.45 112.035C205.47 112.529 204.621 113.253 203.919 114.191C203.217 115.129 202.661 116.233 202.285 117.5C202.071 118.233 201.918 119.003 201.823 119.82H216.902V119.491C216.87 118.06 216.591 116.726 216.053 115.492C215.514 114.242 214.714 113.237 213.669 112.447C212.607 111.657 211.284 111.278 209.7 111.278ZM319.987 111.278C318.811 111.278 317.717 111.525 316.737 112.035C315.758 112.529 314.908 113.253 314.206 114.191C313.504 115.129 312.948 116.233 312.572 117.5C312.358 118.233 312.205 119.003 312.11 119.82H327.189V119.491C327.157 118.06 326.879 116.726 326.34 115.492C325.801 114.242 325.001 113.237 323.956 112.447C322.895 111.657 321.571 111.278 319.987 111.278ZM367.561 111.278C366.385 111.278 365.29 111.525 364.311 112.035C363.331 112.529 362.481 113.253 361.779 114.191C361.077 115.129 360.522 116.233 360.146 117.5C359.932 118.233 359.778 119.003 359.684 119.82H374.764V119.491C374.731 118.06 374.453 116.726 373.914 115.492C373.375 114.241 372.574 113.237 371.529 112.447C370.468 111.657 369.161 111.278 367.561 111.278ZM177.021 118.257L177.036 118.24H177.021C177.021 118.246 177.021 118.251 177.021 118.257ZM70.293 115.854H73.2334V115.837H78.4443C79.8232 115.777 81.014 115.539 82.0361 115.13C83.2117 114.636 84.1099 113.911 84.7305 112.957C85.3509 111.986 85.6445 110.801 85.6445 109.402C85.6445 108.004 85.3346 106.769 84.7305 105.814C84.1262 104.86 83.2114 104.169 82.0029 103.708C80.7944 103.247 79.2752 103.033 77.4297 103.033H70.293V115.854ZM400.812 100.054C401.4 100.054 401.874 100.235 402.217 100.613C402.56 100.975 402.739 101.436 402.739 101.963C402.739 102.489 402.56 102.917 402.217 103.296C401.874 103.658 401.4 103.855 400.812 103.855C400.225 103.855 399.768 103.674 399.425 103.296C399.098 102.934 398.918 102.489 398.918 101.963C398.918 101.436 399.082 100.975 399.425 100.613C399.751 100.251 400.225 100.054 400.812 100.054ZM411.428 100.054C412.016 100.054 412.49 100.235 412.833 100.613C413.176 100.975 413.355 101.436 413.355 101.963C413.355 102.489 413.176 102.918 412.833 103.296C412.49 103.658 412.016 103.855 411.428 103.855C410.84 103.855 410.366 103.674 410.023 103.296C409.681 102.934 409.518 102.489 409.518 101.963C409.518 101.436 409.681 100.975 410.023 100.613C410.366 100.251 410.84 100.054 411.428 100.054ZM252.723 36.7705C255.352 36.7705 257.475 37.1164 259.075 37.8076C260.676 38.4988 261.982 39.3873 262.979 40.457C264.105 41.6584 264.905 43.2061 265.379 45.0986C265.852 46.9912 266.082 49.5588 266.082 52.7842V78.2939C266.082 80.9434 266.572 82.7543 267.535 83.6924C268.515 84.6468 270.148 85.1083 272.467 85.1084V87.0996C271.34 87.0338 269.593 86.9514 267.241 86.8691C264.889 86.7869 262.619 86.7207 260.414 86.7207C258.095 86.7207 255.841 86.7704 253.637 86.8691C251.432 86.9679 249.815 87.0502 248.737 87.0996V85.1084C250.746 85.1084 252.15 84.6303 252.967 83.6924C253.783 82.7379 254.192 80.9435 254.192 78.2939V49.5586C254.192 47.8472 254.029 46.3162 253.719 44.9668C253.409 43.6011 252.771 42.5311 251.841 41.7412C250.894 40.9512 249.554 40.5557 247.79 40.5557C245.716 40.5557 243.887 41.132 242.286 42.2676C240.686 43.4032 239.428 44.9668 238.514 46.958C237.599 48.9492 237.142 51.1713 237.142 53.6396V78.2939C237.142 80.9435 237.551 82.7543 238.367 83.6924C239.184 84.6468 240.588 85.1084 242.597 85.1084V87.0996C241.535 87.0338 239.934 86.9514 237.795 86.8691C235.656 86.7704 233.5 86.7207 231.295 86.7207C228.976 86.7207 226.624 86.7704 224.24 86.8691C221.856 86.9679 220.059 87.0502 218.883 87.0996V85.1084C221.202 85.1084 222.852 84.6304 223.832 83.6924C224.795 82.7378 225.285 80.9432 225.285 78.2939V48.4229C225.285 45.5758 224.828 43.4687 223.913 42.1191C222.998 40.7533 221.332 40.0791 218.883 40.0791V38.0869C220.892 38.2844 222.836 38.3672 224.714 38.3672C227.033 38.3672 229.237 38.252 231.344 38.0381C233.45 37.8241 235.379 37.4785 237.126 37.0342V46.5137C238.694 42.9095 240.866 40.3751 243.626 38.9268C246.386 37.4785 249.391 36.7373 252.657 36.7373L252.723 36.7705ZM326.051 21.8145C324.042 21.8803 322.523 22.111 321.494 22.5225C320.465 22.9339 319.747 23.6913 319.371 24.7939C318.996 25.8966 318.799 27.6246 318.799 29.9609V76.999C318.799 79.2698 318.979 80.9817 319.322 82.1172C319.665 83.2525 320.368 84.0102 321.445 84.3887C322.507 84.7671 324.042 85.0139 326.051 85.1455V87.0381C324.483 86.9064 322.474 86.8405 320.024 86.8076C317.575 86.7747 315.092 86.7588 312.593 86.7588C309.768 86.7588 307.122 86.7582 304.64 86.8076C302.157 86.8405 300.165 86.9229 298.662 87.0381V85.1455C300.736 85.0139 302.288 84.7671 303.316 84.3887C304.345 84.0102 305.048 83.2525 305.391 82.1172C305.734 80.9817 305.914 79.2698 305.914 76.999V29.9609C305.914 27.6246 305.733 25.8966 305.391 24.7939C305.048 23.6913 304.362 22.9339 303.316 22.5225C302.288 22.1111 300.736 21.8803 298.662 21.8145V19.9219C300.165 19.9877 302.157 20.0533 304.64 20.1191C307.122 20.185 309.768 20.2178 312.593 20.2178C315.108 20.2178 317.575 20.185 320.024 20.1191C322.474 20.0533 324.483 19.9877 326.051 19.9219V21.8145ZM155.418 37.6211C156.398 37.6869 157.362 37.7366 158.342 37.7695C159.305 37.8024 160.236 37.8193 161.118 37.8193C162.441 37.8193 163.731 37.7865 165.021 37.7207C166.311 37.6549 167.389 37.5556 168.271 37.4404H168.32V39.4316C167.128 39.6785 166.017 40.3541 164.972 41.4238C163.943 42.4937 162.947 44.4031 162 47.1182L147.595 86.7656C146.844 86.6998 146.093 86.667 145.342 86.667C144.591 86.667 143.806 86.6998 142.989 86.7656L126.054 44.748C125.107 42.3457 124.143 40.8644 123.131 40.2881C122.135 39.7121 121.285 39.4317 120.583 39.4316V37.4404C122.33 37.5721 124.159 37.6708 126.037 37.7695C127.915 37.8683 129.99 37.918 132.243 37.918C134.187 37.918 136.245 37.8683 138.4 37.7695C140.572 37.6708 142.581 37.5721 144.476 37.4404V39.4316C143.087 39.4317 141.862 39.5309 140.752 39.7119C139.658 39.9095 138.923 40.3869 138.548 41.1768C138.172 41.9668 138.319 43.3494 139.021 45.3076L150.065 74.1709L158.015 52.417C159.076 49.4551 159.517 47.0521 159.338 45.209C159.142 43.3822 158.472 41.9829 157.312 41.0283C156.153 40.0738 154.504 39.5467 152.364 39.415V37.4238C153.426 37.4897 154.455 37.5553 155.418 37.6211ZM192.785 35.708C195.676 35.708 197.995 36.0043 200.118 36.6133C202.258 37.2222 204.071 38.2759 205.573 39.79C207.075 41.2383 208.055 43.0492 208.496 45.1885C208.937 47.3443 209.149 49.9611 209.149 53.0547V79.042C209.149 80.6215 209.345 81.7413 209.721 82.416C210.096 83.0741 210.701 83.4199 211.501 83.4199C212.121 83.4199 212.726 83.2559 213.281 82.9434C213.853 82.6307 214.473 82.1853 215.159 81.6094L216.188 83.2227C214.8 84.2924 213.363 85.1482 211.86 85.79C210.358 86.4153 208.529 86.7451 206.406 86.7451C204.283 86.7451 202.47 86.4318 201.18 85.79C199.89 85.1647 198.959 84.2431 198.354 83.042C197.75 81.8407 197.424 80.4248 197.358 78.7793C195.856 81.3135 193.994 83.2719 191.806 84.6543C189.601 86.0532 186.971 86.7451 183.9 86.7451L183.934 86.7607C181.239 86.7607 178.952 86.2341 177.058 85.1973C175.18 84.1605 173.759 82.7282 172.828 80.9346C171.881 79.1408 171.424 77.1327 171.424 74.9111C171.424 72.1958 172.044 69.9575 173.302 68.2295C174.559 66.485 176.176 65.1021 178.152 64.0488C180.128 63.0121 182.219 62.1235 184.407 61.3994C186.596 60.6753 188.67 59.9843 190.613 59.3096C192.557 58.6513 194.158 57.877 195.415 56.9883C196.672 56.0998 197.293 54.9311 197.293 53.4834V46.5537C197.293 44.5298 196.999 42.8674 196.395 41.5674C195.79 40.2673 194.924 39.2959 193.765 38.6211C192.605 37.963 191.152 37.6172 189.389 37.6172C188.066 37.6172 186.694 37.8149 185.24 38.1934C183.803 38.5719 182.61 39.2965 181.663 40.3662C183.296 40.8106 184.571 41.6335 185.469 42.835C186.383 44.0363 186.841 45.4849 186.841 47.1963C186.841 49.1544 186.203 50.6855 184.913 51.7881C183.623 52.8905 182.006 53.4502 180.062 53.4502C177.989 53.4501 176.421 52.7917 175.359 51.459C174.298 50.126 173.759 48.5782 173.759 46.8174C173.759 45.0565 174.2 43.5747 175.082 42.4062C175.964 41.238 177.189 40.1848 178.756 39.2305C180.324 38.1608 182.333 37.3049 184.782 36.6631C187.232 36.0377 189.894 35.708 192.785 35.708ZM388.829 34.9932C394.349 34.9932 398.678 36.6717 401.813 40.0127C404.949 43.3701 406.517 48.703 406.517 56.043H379.145C379.053 56.7338 378.995 57.4669 378.981 58.2324C378.949 59.1867 378.933 60.1249 378.933 61.0791C378.933 65.4403 379.553 69.0454 380.811 71.8926C382.068 74.7395 383.701 76.8299 385.71 78.1465C387.719 79.4795 389.793 80.1377 391.916 80.1377C393.353 80.1377 394.839 79.9238 396.342 79.4795C397.844 79.0352 399.314 78.212 400.768 77.0107C402.205 75.8094 403.528 74.0977 404.72 71.8926L406.5 72.6494C405.814 74.8711 404.671 77.0601 403.07 79.2324C401.47 81.4211 399.412 83.1988 396.914 84.5977C394.399 85.9965 391.458 86.6885 388.062 86.6885C383.799 86.6884 380.026 85.7334 376.776 83.8408C373.51 81.9482 370.978 79.1172 369.149 75.3486C367.337 71.5799 366.423 66.9876 366.423 61.5566C366.423 55.7966 367.37 50.9744 369.297 47.041C371.208 43.1242 373.853 40.1285 377.25 38.0713C380.631 36.0141 384.501 34.9932 388.829 34.9932ZM473.804 34.9932C476.433 34.9932 478.703 35.3719 480.581 36.1289C482.459 36.8859 483.848 37.5441 484.729 38.1201C486.869 39.6997 488.142 38.6956 488.583 35.0918H490.657C490.527 36.9185 490.429 39.0914 490.38 41.5928C490.315 44.0944 490.282 47.4195 490.282 51.5996H488.208C487.898 49.2627 487.293 46.9912 486.428 44.7695C485.546 42.5642 484.272 40.7039 482.573 39.2227C480.875 37.7416 478.653 37.001 475.894 37.001C473.95 37.001 472.333 37.5773 471.043 38.7129C469.753 39.8485 469.116 41.4618 469.116 43.5518C469.116 45.444 469.688 47.1063 470.814 48.5215C471.941 49.9368 473.395 51.2706 475.191 52.5049C476.988 53.7392 478.85 55.0889 480.793 56.5371C483.047 58.0512 485.056 59.5819 486.819 61.1289C488.583 62.6759 489.988 64.3874 491.05 66.2471C492.111 68.1067 492.65 70.3124 492.65 72.8467C492.65 75.7596 491.849 78.2454 490.249 80.2861C488.649 82.3432 486.542 83.9238 483.945 85.0264C481.349 86.1289 478.474 86.6884 475.339 86.6885C473.641 86.6885 472.105 86.5236 470.733 86.2109C469.345 85.8983 468.136 85.4867 467.059 84.9766C466.242 84.5322 465.507 84.1207 464.854 83.7422C464.2 83.3637 463.514 83.0514 462.828 82.7881C462.208 82.4754 461.652 82.59 461.179 83.166C460.705 83.7421 460.346 84.6808 460.102 86.0137H458.027C458.158 83.9895 458.239 81.5203 458.305 78.624C458.37 75.711 458.402 71.8593 458.402 67.0537H460.477C460.918 70.5261 461.587 73.5874 462.502 76.2041C463.416 78.8207 464.739 80.8784 466.503 82.376C468.267 83.857 470.521 84.5976 473.28 84.5977C474.472 84.5977 475.616 84.3509 476.71 83.8408C477.804 83.3307 478.719 82.5403 479.438 81.4707C480.156 80.401 480.516 78.936 480.516 77.1094C480.516 74.3282 479.568 72.0239 477.69 70.1807C475.812 68.3539 473.46 66.3958 470.635 64.3057C468.495 62.7257 466.503 61.1782 464.657 59.6641C462.812 58.1501 461.293 56.4383 460.134 54.5459C458.974 52.6534 458.387 50.3981 458.387 47.8145C458.387 44.9674 459.105 42.6136 460.559 40.7539C461.996 38.8943 463.906 37.4622 466.258 36.4912C468.61 35.5037 471.141 35.0264 473.836 35.0264L473.804 34.9932ZM349.765 36.4092H361.817V38.3018H349.765V76.04C349.765 78.3109 350.174 79.9244 350.99 80.8789C351.807 81.833 352.967 82.2939 354.469 82.2939C355.971 82.2939 357.229 81.7343 358.421 80.6318C359.613 79.5292 360.675 77.6851 361.622 75.085L363.32 75.8428C362.373 78.9366 360.919 81.521 358.943 83.5781C356.967 85.6351 354.191 86.6553 350.614 86.6553C348.475 86.6553 346.678 86.3917 345.208 85.8486C343.738 85.3056 342.465 84.532 341.403 83.5283C340.015 82.0802 339.101 80.3355 338.627 78.3115C338.153 76.2874 337.925 73.6041 337.925 70.2471V38.2852H329.645V36.3926H337.925V23.209C340.178 23.1431 342.285 22.9293 344.229 22.5508C346.166 22.1734 348.006 21.5664 349.765 20.7637V36.4092ZM522.733 34.9932C527.061 34.9932 530.899 35.8657 534.264 37.5938C537.611 39.3383 540.29 42.1035 542.266 45.8887C544.242 49.6904 545.222 54.6773 545.222 60.8652C545.222 67.0533 544.242 72.0575 542.266 75.8428C540.29 79.6277 537.628 82.3928 534.264 84.0879C530.899 85.7994 527.061 86.6552 522.733 86.6553C518.406 86.6553 514.551 85.7994 511.154 84.0879C507.758 82.3763 505.095 79.6278 503.151 75.8428C501.208 72.041 500.229 67.0533 500.229 60.8652C500.229 54.6773 501.192 49.6739 503.151 45.8887C505.095 42.1034 507.757 39.3383 511.154 37.5938C514.535 35.8493 518.406 34.9932 522.733 34.9932ZM443.884 36.2393C445.827 36.2393 447.443 36.6509 448.733 37.4736C450.023 38.2965 450.971 39.3334 451.608 40.6006C452.229 41.8678 452.556 43.2016 452.556 44.584C452.556 46.6737 451.935 48.402 450.727 49.8008C449.502 51.1995 447.885 51.8906 445.876 51.8906C443.998 51.8906 442.463 51.3807 441.271 50.377C440.078 49.3731 439.49 47.9736 439.49 46.1963C439.49 44.6166 439.882 43.2835 440.666 42.2139C441.45 41.1442 442.349 40.2883 443.345 39.6465C442.659 39.2679 441.874 39.1359 440.992 39.2676C439.49 39.3993 438.102 39.9264 436.845 40.8809C435.587 41.8353 434.525 43.0035 433.644 44.3857C432.762 45.7846 432.092 47.2668 431.618 48.8467C431.145 50.4264 430.916 51.9408 430.916 53.4053V76.8252C430.916 79.9187 431.7 81.9924 433.268 83.0293C434.835 84.0661 437.122 84.5938 440.144 84.5938V86.585C438.706 86.5191 436.616 86.4368 433.889 86.3545C431.161 86.2557 428.319 86.2061 425.38 86.2061C422.93 86.2061 420.496 86.2557 418.079 86.3545C415.662 86.4532 413.866 86.5356 412.674 86.585V84.5938C414.993 84.5937 416.642 84.1157 417.622 83.1777C418.602 82.2232 419.075 80.4288 419.075 77.7793V47.9082C419.075 45.0612 418.619 42.9541 417.704 41.6045C416.79 40.2385 415.123 39.5635 412.674 39.5635V37.5723C414.682 37.7697 416.626 37.8525 418.504 37.8525C420.823 37.8525 423.028 37.7374 425.135 37.5234C427.241 37.3095 429.169 36.9639 430.916 36.5195V46.3779C431.667 44.6006 432.664 42.9709 433.889 41.4404C435.114 39.9263 436.583 38.675 438.314 37.6875C440.046 36.7001 441.907 36.2227 443.916 36.2227L443.884 36.2393ZM585.218 36.2559C587.847 36.2559 589.97 36.6018 591.57 37.293C593.171 37.9842 594.477 38.8727 595.474 39.9424C596.6 41.1438 597.4 42.6914 597.874 44.584C598.348 46.4766 598.576 49.0441 598.576 52.2695V77.7793C598.576 80.4288 599.067 82.2397 600.03 83.1777C600.994 84.1321 602.643 84.5937 604.962 84.5938V86.585C603.835 86.5191 602.088 86.4368 599.736 86.3545C597.385 86.2557 595.114 86.2061 592.909 86.2061C590.59 86.2061 588.336 86.2557 586.132 86.3545C583.927 86.4532 582.31 86.5356 581.232 86.585V84.5938C583.241 84.5937 584.645 84.1156 585.462 83.1777C586.278 82.2232 586.687 80.4288 586.688 77.7793V49.0439C586.688 47.3326 586.524 45.8016 586.214 44.4521C585.904 43.0862 585.266 42.0165 584.335 41.2266C583.388 40.4366 582.049 40.041 580.285 40.041C578.211 40.041 576.382 40.6173 574.781 41.7529C573.181 42.8885 571.924 44.4521 571.025 46.4434C570.111 48.4346 569.653 50.6566 569.653 53.125V77.7793C569.653 80.4286 570.062 82.2396 570.878 83.1777C571.695 84.1321 573.1 84.5938 575.108 84.5938V86.585C574.047 86.5191 572.446 86.4368 570.307 86.3545C568.167 86.2557 566.011 86.2061 563.807 86.2061C561.488 86.2061 559.135 86.2557 556.751 86.3545C554.367 86.4532 552.587 86.5356 551.395 86.585V84.5938C553.713 84.5938 555.363 84.1157 556.343 83.1777C557.323 82.2232 557.797 80.4288 557.797 77.7793V47.9082C557.797 45.0612 557.339 42.9541 556.425 41.6045C555.51 40.2385 553.844 39.5635 551.395 39.5635V37.5723C553.403 37.7697 555.347 37.8525 557.225 37.8525C559.544 37.8525 561.749 37.7374 563.855 37.5234C565.962 37.3095 567.889 36.9638 569.637 36.5195V45.999C571.204 42.3949 573.377 39.8605 576.137 38.4121C578.897 36.9638 581.902 36.2227 585.168 36.2227L585.218 36.2559ZM95.8457 72.6826C99.636 72.6831 102.71 75.7555 102.71 79.5459C102.71 83.3362 99.6359 86.4087 95.8457 86.4092C92.0552 86.409 88.9825 83.3364 88.9824 79.5459C88.9824 75.7553 92.0552 72.6828 95.8457 72.6826ZM522.733 36.8857C519.777 36.8857 517.377 38.7624 515.531 42.5312C513.686 46.3002 512.755 52.4062 512.755 60.8818C512.755 69.3575 513.686 75.4641 515.531 79.1836C517.377 82.9191 519.778 84.7793 522.733 84.7793C525.689 84.7792 528.009 82.9192 529.887 79.1836C531.765 75.4477 532.712 69.3575 532.712 60.8818C532.712 52.4064 531.765 46.3002 529.887 42.5312C528.009 38.7624 525.624 36.8858 522.733 36.8857ZM197.293 57.3506C196.672 58.305 195.774 59.1445 194.614 59.918C193.455 60.675 192.213 61.4324 190.891 62.1895C189.568 62.9465 188.326 63.8191 187.167 64.79C186.008 65.7773 185.028 66.9621 184.244 68.3936C183.46 69.8089 183.068 71.6366 183.068 73.8418C183.068 76.31 183.656 78.1863 184.848 79.4863C186.04 80.7864 187.608 81.4287 189.552 81.4287L189.584 81.4453C191.086 81.4453 192.491 81.0336 193.765 80.2109C195.055 79.3881 196.231 78.1535 197.293 76.5078V57.3506ZM388.34 37.001C385.955 37.001 383.881 38.417 382.134 41.2148C380.441 43.9167 379.366 48.2567 378.893 54.249H395.591C395.721 51.1553 395.526 48.2914 395.02 45.6748C394.513 43.0581 393.712 40.951 392.618 39.3711C391.524 37.7913 390.087 37.0011 388.34 37.001ZM349.765 20.7637V20.7568H349.781C349.776 20.7593 349.77 20.7612 349.765 20.7637Z" fill="white"/>
</svg>
