<svg width="17" height="24" viewBox="0 0 17 24" fill="none" xmlns="http://www.w3.org/2000/svg">
<path d="M12 0C13.6569 0 15 1.34315 15 3V13.5C15 14.0523 14.5523 14.5 14 14.5C13.4477 14.5 13 14.0523 13 13.5V3C13 2.44772 12.5523 2 12 2H3C2.44771 2 2 2.44772 2 3V21C2 21.5523 2.44772 22 3 22H6C6.55228 22 7 22.4477 7 23C7 23.5523 6.55228 24 6 24H3C1.34315 24 0 22.6569 0 21V3C0 1.34315 1.34315 0 3 0H12ZM17 16C17 22.4 11.6667 24 9 24C9 17.6 14.3333 16 17 16ZM10 4C10.5523 4 11 4.44772 11 5C11 5.55228 10.5523 6 10 6H5C4.44772 6 4 5.55228 4 5C4 4.44772 4.44772 4 5 4H10Z" fill="#2F2E2E"/>
</svg>
